<svg id="Layer_1" data-name="Layer 1" xmlns="http://www.w3.org/2000/svg" xmlns:xlink="http://www.w3.org/1999/xlink" viewBox="0 0 123.11 123.14"><defs><style>.cls-1{fill:#ff635d;}.cls-2{fill:none;}.cls-3{clip-path:url(#clip-path);}.cls-4{fill:#42a6a7;}.cls-5{fill:#c7b266;}.cls-6{fill:#91814d;}.cls-7{clip-path:url(#clip-path-2);}.cls-8{fill:#fff;}</style><clipPath id="clip-path"><circle class="cls-1" cx="61.59" cy="61.5" r="61.5"/></clipPath><clipPath id="clip-path-2"><rect class="cls-2" x="31.68" y="6.85" width="63.17" height="58.48"/></clipPath></defs><title>Wagtail Storages</title><circle class="cls-1" cx="61.59" cy="61.5" r="61.5"/><g class="cls-3"><rect class="cls-4" x="27.74" y="38.35" width="66.69" height="143" transform="translate(-48.76 170.93) rotate(-90)"/></g><rect class="cls-5" x="31.68" y="65.42" width="58.94" height="38.01"/><polygon class="cls-5" points="31.68 65.56 41.68 55.66 30.46 48.63 12.87 52.14 31.68 65.56"/><polygon class="cls-5" points="90.62 65.56 31.68 65.56 41.68 55.66 80.62 55.66 90.62 65.56"/><polygon class="cls-5" points="90.59 65.7 80.59 55.8 91.81 48.77 109.4 52.28 90.59 65.7"/><polygon class="cls-6" points="89.92 65.32 32.39 65.32 42.15 55.66 80.16 55.66 89.92 65.32"/><g class="cls-7"><path class="cls-8" d="M78.36,22.66v3.93s-7-2.62-11.59,2.14C63.46,32.18,63.19,36,64.7,41.21c14.9,0,17.24,8.34,17.24,8.34L80.42,40l4.69-5.72h0C85.11,27.49,79.53,23,78.36,22.66Z"/><circle cx="79.67" cy="32.32" r="1.79"/><path d="M81.94,49.55s-2.27-11.44-17.17-8.34c-1.52-5.17-1.24-9,2.07-12.48,4.48-4.76,11.52-2.14,11.52-2.14V22.66a17.45,17.45,0,0,0-7.45-1.31c-9.59,0-14.9,7.17-17.17,12l-27,49.58,7.58-1.45L20.43,108.37l9.73-1.72L37.6,85.48C58.7,85.48,85.73,77.9,81.94,49.55Z"/><polygon points="91.04 39.97 85.11 34.25 80.42 39.97 91.04 39.97"/></g></svg>